<svg xmlns="http://www.w3.org/2000/svg" data-name="Layer 1" viewBox="0 0 100 125" x="0px" y="0px"><title>bell_shaped_curve</title><path d="M37.92,42.22c3.78-8,7-14.95,12.08-14.95h0c5,0,8.3,6.93,12.08,14.95,6.12,13,13.73,29.13,33.48,29.13h0v-2h0c-18.48,0-25.79-15.51-31.67-28C59.82,32.74,56.3,25.28,50,25.28h0c-6.3,0-9.82,7.46-13.89,16.09-5.88,12.47-13.19,28-31.67,28h0v2h0C24.18,71.35,31.8,55.2,37.92,42.22Z"/><rect y="72.72" width="100" height="2"/><text x="0" y="115" fill="#000000" font-size="5px" font-weight="bold" font-family="'Helvetica Neue', Helvetica, Arial-Unicode, Arial, Sans-serif">Created by Davo Sime</text><text x="0" y="120" fill="#000000" font-size="5px" font-weight="bold" font-family="'Helvetica Neue', Helvetica, Arial-Unicode, Arial, Sans-serif">from the Noun Project</text></svg>